<svg width="36" height="36" viewBox="0 0 36 36" fill="none" xmlns="http://www.w3.org/2000/svg">
<g clip-path="url(#clip0_41_448)">
<path d="M29.625 0H6.375C2.85418 0 0 2.85418 0 6.375V28.725C0 32.2458 2.85418 35.1 6.375 35.1H29.625C33.1458 35.1 36 32.2458 36 28.725V6.375C36 2.85418 33.1458 0 29.625 0Z" fill="#001E36"/>
<path d="M8.1062 24.6143V9.18244C8.1062 9.06998 8.15454 9.01339 8.25115 9.01339C8.50845 9.01339 8.74338 9.00962 9.09773 9.00131C9.45171 8.9934 9.83408 8.98535 10.2448 8.97717C10.6554 8.96923 11.0902 8.96117 11.549 8.953C12.0078 8.94509 12.4626 8.94106 12.9134 8.94092C14.1368 8.94092 15.1672 9.09387 16.0046 9.39978C16.76 9.6553 17.4489 10.0761 18.0212 10.6314C18.5063 11.1128 18.8812 11.6937 19.12 12.334C19.3459 12.9572 19.4604 13.6152 19.4581 14.2781C19.4581 15.5663 19.1603 16.6289 18.5646 17.4659C17.9649 18.3063 17.1221 18.9426 16.1496 19.2892C15.1352 19.6677 14.0081 19.796 12.7686 19.796C12.4142 19.796 12.1647 19.792 12.0199 19.784C11.875 19.776 11.6577 19.772 11.3679 19.7719V24.5901C11.3721 24.6197 11.3694 24.6498 11.3599 24.6781C11.3505 24.7064 11.3346 24.7321 11.3135 24.7532C11.2924 24.7742 11.2667 24.7901 11.2384 24.7996C11.2101 24.809 11.18 24.8117 11.1505 24.8075H8.27524C8.16245 24.8075 8.1062 24.7433 8.1062 24.6143ZM11.3679 11.9114V16.9446C11.5769 16.9608 11.7701 16.9689 11.9474 16.9688H12.7444C13.3308 16.9668 13.9133 16.8738 14.4711 16.6931C14.9496 16.551 15.3771 16.2744 15.7028 15.8962C16.0167 15.526 16.1737 15.0108 16.1737 14.3506C16.1865 13.8834 16.0649 13.4224 15.8235 13.0223C15.5697 12.6354 15.2029 12.336 14.773 12.165C14.2116 11.9468 13.612 11.8441 13.01 11.8631C12.6236 11.8631 12.2815 11.8671 11.9837 11.8752C11.6856 11.8835 11.4803 11.8955 11.3679 11.9114V11.9114Z" fill="#31A8FF"/>
<path d="M28.7956 16.0293C28.3417 15.7961 27.8583 15.6255 27.3586 15.5222C26.808 15.3959 26.2451 15.3311 25.6802 15.329C25.3746 15.3207 25.0695 15.3573 24.7746 15.4377C24.5868 15.4795 24.42 15.5864 24.3036 15.7395C24.2249 15.862 24.183 16.0045 24.1829 16.1501C24.1873 16.2913 24.2382 16.4272 24.3278 16.5365C24.4689 16.7015 24.6412 16.8369 24.8349 16.9349C25.1792 17.1204 25.534 17.2857 25.8975 17.43C26.708 17.7013 27.4825 18.0703 28.2038 18.5288C28.6952 18.839 29.1019 19.2664 29.3872 19.7726C29.6271 20.2519 29.7473 20.7823 29.7374 21.3182C29.7518 22.0259 29.5496 22.7211 29.1578 23.3106C28.7384 23.909 28.1557 24.3742 27.4793 24.6509C26.7465 24.9728 25.8409 25.1338 24.7625 25.1339C24.0774 25.1408 23.3934 25.0761 22.7218 24.9407C22.1926 24.8437 21.6775 24.6814 21.1883 24.4577C21.1355 24.4304 21.0915 24.3887 21.0616 24.3374C21.0317 24.286 21.017 24.2272 21.0192 24.1679V21.5597C21.0163 21.5341 21.0204 21.5083 21.031 21.4849C21.0417 21.4615 21.0585 21.4414 21.0796 21.4269C21.1004 21.4151 21.1242 21.41 21.1479 21.4122C21.1717 21.4143 21.1942 21.4237 21.2124 21.4389C21.7902 21.7796 22.4176 22.0281 23.072 22.1755C23.6487 22.3201 24.2404 22.3971 24.8349 22.4049C25.3983 22.4049 25.8129 22.3325 26.0786 22.1876C26.1987 22.1326 26.3002 22.0441 26.3709 21.9327C26.4416 21.8212 26.4785 21.6917 26.4772 21.5597C26.4772 21.3506 26.3564 21.1494 26.1149 20.9559C25.8734 20.7627 25.3824 20.5293 24.6417 20.2556C23.8834 19.9916 23.1644 19.6261 22.5044 19.1688C22.0324 18.8405 21.6437 18.4063 21.3694 17.9009C21.1319 17.4251 21.0118 16.8992 21.0192 16.3674C21.0179 15.7284 21.1934 15.1016 21.5264 14.5562C21.906 13.9556 22.4511 13.4776 23.0962 13.1796C23.8044 12.8257 24.6899 12.6486 25.7527 12.6483C26.375 12.6433 26.9969 12.6877 27.6122 12.7812C28.0578 12.8377 28.4935 12.9555 28.9068 13.1313C28.9396 13.1407 28.9697 13.1576 28.9949 13.1807C29.02 13.2037 29.0395 13.2323 29.0517 13.2641C29.068 13.3231 29.0761 13.3841 29.0759 13.4453V15.8844C29.0775 15.9128 29.0717 15.9411 29.059 15.9666C29.0463 15.992 29.0271 16.0136 29.0034 16.0293C28.9711 16.0454 28.9356 16.0538 28.8995 16.0538C28.8634 16.0538 28.8279 16.0454 28.7956 16.0293Z" fill="#31A8FF"/>
</g>
<defs>
<clipPath id="clip0_41_448">
<rect width="36" height="35.1" fill="white"/>
</clipPath>
</defs>
</svg>
