<svg width="35" height="35" viewBox="0 0 35 35" fill="none" xmlns="http://www.w3.org/2000/svg">
<path d="M17.5001 8.01782C12.1313 8.01782 7.77783 12.3706 7.77783 17.7401C7.77783 22.0357 10.5636 25.68 14.4265 26.9656C14.9124 27.0555 15.0908 26.7547 15.0908 26.4979C15.0908 26.2661 15.0817 25.5001 15.0776 24.6878C12.3728 25.2759 11.8021 23.5407 11.8021 23.5407C11.3598 22.4169 10.7226 22.1181 10.7226 22.1181C9.84055 21.5147 10.7891 21.527 10.7891 21.527C11.7654 21.5957 12.2795 22.529 12.2795 22.529C13.1466 24.0153 14.5539 23.5856 15.1087 23.3372C15.1959 22.7088 15.4479 22.2799 15.7259 22.0372C13.5665 21.7912 11.2964 20.9576 11.2964 17.2323C11.2964 16.1709 11.6762 15.3036 12.2982 14.6228C12.1972 14.3778 11.8645 13.389 12.3923 12.0498C12.3923 12.0498 13.2087 11.7885 15.0666 13.0464C15.8421 12.831 16.6738 12.723 17.5001 12.7193C18.3263 12.723 19.1587 12.831 19.9357 13.0464C21.7914 11.7885 22.6066 12.0498 22.6066 12.0498C23.1358 13.389 22.8029 14.3778 22.7019 14.6228C23.3253 15.3036 23.7025 16.1709 23.7025 17.2323C23.7025 20.9664 21.4281 21.7887 19.2632 22.0294C19.6119 22.3311 19.9226 22.9228 19.9226 23.8298C19.9226 25.1306 19.9113 26.1776 19.9113 26.4979C19.9113 26.7566 20.0863 27.0597 20.5792 26.9643C24.4401 25.6773 27.2223 22.0343 27.2223 17.7401C27.2223 12.3706 22.8694 8.01782 17.5001 8.01782Z" fill="#161614"/>
<path d="M11.4191 21.8675C11.3977 21.9158 11.3216 21.9303 11.2525 21.8972C11.182 21.8654 11.1423 21.7996 11.1652 21.7511C11.1861 21.7014 11.2622 21.6875 11.3326 21.7209C11.4033 21.7525 11.4436 21.819 11.4191 21.8675ZM11.8973 22.2942C11.851 22.3372 11.7603 22.3172 11.6988 22.2493C11.6352 22.1815 11.6233 22.0909 11.6703 22.0472C11.7181 22.0043 11.8061 22.0243 11.8698 22.0922C11.9334 22.1608 11.9457 22.2508 11.8973 22.2943L11.8973 22.2942ZM12.2254 22.8401C12.1658 22.8816 12.0684 22.8427 12.0082 22.7563C11.9486 22.6699 11.9486 22.5662 12.0095 22.5246C12.0699 22.4831 12.1658 22.5204 12.2268 22.6062C12.2863 22.6941 12.2863 22.7978 12.2254 22.8402L12.2254 22.8401ZM12.7802 23.4725C12.7269 23.5312 12.6135 23.5155 12.5304 23.4353C12.4454 23.3569 12.4217 23.2456 12.4752 23.1869C12.5291 23.128 12.6432 23.1445 12.7269 23.2241C12.8113 23.3023 12.8371 23.4144 12.7803 23.4725H12.7802ZM13.4973 23.686C13.4739 23.7621 13.3645 23.7967 13.2544 23.7644C13.1445 23.7311 13.0725 23.6418 13.0947 23.5649C13.1176 23.4883 13.2274 23.4522 13.3383 23.4868C13.4481 23.52 13.5202 23.6085 13.4974 23.686H13.4973ZM14.3135 23.7765C14.3162 23.8567 14.2228 23.9232 14.1072 23.9247C13.9909 23.9272 13.8969 23.8623 13.8957 23.7834C13.8957 23.7025 13.987 23.6366 14.1032 23.6347C14.2188 23.6324 14.3135 23.6968 14.3135 23.7765ZM15.1152 23.7458C15.129 23.824 15.0487 23.9044 14.9339 23.9257C14.8211 23.9463 14.7166 23.898 14.7022 23.8205C14.6882 23.7403 14.7701 23.66 14.8827 23.6392C14.9977 23.6192 15.1005 23.6662 15.1152 23.7458Z" fill="#161614"/>
</svg>
