<svg width="36" height="36" viewBox="0 0 36 36" fill="none" xmlns="http://www.w3.org/2000/svg">
<g clip-path="url(#clip0_41_438)">
<path d="M29.625 0H6.375C2.85418 0 0 2.85418 0 6.375V28.725C0 32.2458 2.85418 35.1 6.375 35.1H29.625C33.1458 35.1 36 32.2458 36 28.725V6.375C36 2.85418 33.1458 0 29.625 0Z" fill="#330000"/>
<path d="M17.445 21.0643H11.8664L10.7314 24.5902C10.7159 24.6545 10.6785 24.7114 10.6256 24.7511C10.5727 24.7907 10.5076 24.8107 10.4416 24.8076H7.61602C7.45488 24.8076 7.39853 24.719 7.44697 24.5419L12.2769 10.6315C12.3253 10.4866 12.3736 10.3216 12.4219 10.1364C12.485 9.8142 12.5174 9.48671 12.5185 9.15837C12.5152 9.1354 12.5173 9.11199 12.5246 9.08999C12.532 9.06798 12.5443 9.04798 12.5607 9.03158C12.5771 9.01518 12.5971 9.00281 12.6191 8.99547C12.6411 8.98813 12.6646 8.98602 12.6875 8.98929H16.5273C16.6398 8.98929 16.7042 9.02955 16.7205 9.11006L22.2026 24.566C22.2509 24.7272 22.2026 24.8077 22.0577 24.8075H18.9182C18.8642 24.8135 18.81 24.7997 18.7656 24.7686C18.7211 24.7374 18.6895 24.6912 18.6767 24.6385L17.445 21.0643ZM12.7358 18.0214H16.5515C16.4549 17.6995 16.3422 17.3373 16.2134 16.9346C16.0844 16.5324 15.9475 16.1017 15.8029 15.6426C15.6579 15.1838 15.513 14.7249 15.3681 14.2661C15.2232 13.8072 15.0904 13.3645 14.9697 12.9378C14.8489 12.5114 14.7402 12.121 14.6437 11.7666H14.6195C14.4836 12.4188 14.3143 13.0636 14.1124 13.6985C13.8867 14.423 13.6573 15.1637 13.4241 15.9203C13.1905 16.6773 12.9611 17.3777 12.7358 18.0214H12.7358Z" fill="#FF9A00"/>
<path d="M25.4625 11.5493C25.2162 11.5592 24.9706 11.5169 24.7417 11.4254C24.5128 11.3338 24.3058 11.195 24.1343 11.018C23.9632 10.8333 23.8303 10.6165 23.7433 10.3803C23.6563 10.1441 23.6168 9.89297 23.6271 9.64141C23.6183 9.39235 23.6622 9.14424 23.7558 8.91328C23.8494 8.68233 23.9907 8.47372 24.1705 8.30108C24.3485 8.13023 24.5586 7.99638 24.7887 7.90725C25.0187 7.81813 25.2642 7.77552 25.5108 7.78187C26.0905 7.78187 26.5453 7.95494 26.8753 8.30108C27.0419 8.48097 27.1714 8.69195 27.2563 8.92194C27.3413 9.15194 27.38 9.39643 27.3704 9.64141C27.3805 9.89395 27.3397 10.1459 27.2505 10.3824C27.1613 10.6189 27.0255 10.835 26.8511 11.018C26.6689 11.1976 26.4515 11.3375 26.2125 11.429C25.9735 11.5204 25.7181 11.5614 25.4625 11.5493ZM23.7961 24.5661V13.0224C23.7961 12.8775 23.8603 12.805 23.9894 12.805H26.9598C27.0885 12.805 27.1529 12.8775 27.1531 13.0224V24.5661C27.1531 24.7272 27.0886 24.8077 26.9598 24.8076H24.0135C23.8687 24.8076 23.7962 24.7271 23.7961 24.5661Z" fill="#FF9A00"/>
</g>
<defs>
<clipPath id="clip0_41_438">
<rect width="36" height="35.1" fill="white"/>
</clipPath>
</defs>
</svg>
