<svg width="35" height="35" viewBox="0 0 35 35" fill="none" xmlns="http://www.w3.org/2000/svg">
<path d="M14.2593 27.2222C16.0482 27.2222 17.5 25.7703 17.5 23.9815V20.7407H14.2593C12.4704 20.7407 11.0186 22.1926 11.0186 23.9815C11.0186 25.7703 12.4704 27.2222 14.2593 27.2222Z" fill="#0ACF83"/>
<path d="M11.0186 17.5C11.0186 15.7111 12.4704 14.2593 14.2593 14.2593H17.5V20.7407H14.2593C12.4704 20.7407 11.0186 19.2889 11.0186 17.5Z" fill="#A259FF"/>
<path d="M11.0186 11.0186C11.0186 9.22968 12.4704 7.77783 14.2593 7.77783H17.5V14.2593H14.2593C12.4704 14.2593 11.0186 12.8075 11.0186 11.0186Z" fill="#F24E1E"/>
<path d="M17.5 7.77783H20.7407C22.5296 7.77783 23.9815 9.22968 23.9815 11.0186C23.9815 12.8075 22.5296 14.2593 20.7407 14.2593H17.5V7.77783Z" fill="#FF7262"/>
<path d="M23.9815 17.5C23.9815 19.2889 22.5296 20.7407 20.7407 20.7407C18.9519 20.7407 17.5 19.2889 17.5 17.5C17.5 15.7111 18.9519 14.2593 20.7407 14.2593C22.5296 14.2593 23.9815 15.7111 23.9815 17.5Z" fill="#1ABCFE"/>
</svg>
